<svg width="161" height="57" viewBox="0 0 161 57" fill="none" xmlns="http://www.w3.org/2000/svg">
<path fill-rule="evenodd" clip-rule="evenodd" d="M9.38367 6.75261C-0.897602 21.9066 5.58014 35.0041 23.8781 50.5C26.8816 47.8481 27.2972 44.9098 25.1065 42.1236C21.3507 38.1085 19.4769 35.7587 16.6944 31.3304C13.2546 25.0747 16.6944 20.8954 21.2518 20.8954C25.1137 20.8954 29.4913 24.5607 25.8562 30.8793C24.654 32.9689 21.2518 35.0041 21.2518 35.0041L25.5906 40.4527C37.7388 33.328 42.181 21.1276 35.1531 6.5C32.4183 7.88718 31.033 9.78596 30.1808 12.0312C29.5172 13.7797 29.7537 15.7648 30.9031 17.2402V17.2402C30.3736 16.6156 29.8775 16.1266 29.195 15.6643C29.1935 15.6719 29.1919 15.6795 29.1903 15.6871C24.7884 12.767 19.5244 13.001 15.2656 15.0224C14.4927 15.5138 14.1253 15.8675 13.5489 16.5472V16.5472C14.5736 15.232 14.6562 13.4669 14.0108 11.9297C13.05 9.64158 11.9163 7.94658 9.38367 6.75261Z" fill="#9747FF"/>
<path d="M44.04 29.78L43.89 27.2L51.93 26C51.87 25.24 51.58 24.58 51.06 24.02C50.54 23.46 49.78 23.18 48.78 23.18C47.76 23.18 46.91 23.54 46.23 24.26C45.55 24.96 45.2 25.97 45.18 27.29L45.27 28.85C45.45 30.13 45.94 31.07 46.74 31.67C47.56 32.27 48.59 32.57 49.83 32.57C50.67 32.57 51.45 32.45 52.17 32.21C52.89 31.95 53.46 31.67 53.88 31.37C54.16 31.55 54.38 31.78 54.54 32.06C54.72 32.32 54.81 32.61 54.81 32.93C54.81 33.45 54.58 33.9 54.12 34.28C53.66 34.64 53.04 34.92 52.26 35.12C51.48 35.32 50.59 35.42 49.59 35.42C48.05 35.42 46.68 35.14 45.48 34.58C44.3 34 43.37 33.14 42.69 32C42.03 30.86 41.7 29.44 41.7 27.74C41.7 26.52 41.89 25.45 42.27 24.53C42.65 23.61 43.16 22.85 43.8 22.25C44.46 21.63 45.22 21.17 46.08 20.87C46.94 20.55 47.84 20.39 48.78 20.39C50.1 20.39 51.25 20.66 52.23 21.2C53.23 21.72 54.01 22.45 54.57 23.39C55.15 24.33 55.44 25.41 55.44 26.63C55.44 27.19 55.29 27.61 54.99 27.89C54.71 28.15 54.31 28.31 53.79 28.37L44.04 29.78ZM58.4461 27.08H62.1361V30.62C62.1361 31.28 62.3261 31.75 62.7061 32.03C63.1061 32.31 63.6661 32.45 64.3861 32.45C64.7061 32.45 65.0461 32.41 65.4061 32.33C65.7861 32.25 66.1061 32.15 66.3661 32.03C66.5061 32.19 66.6361 32.38 66.7561 32.6C66.8761 32.82 66.9361 33.09 66.9361 33.41C66.9361 33.99 66.6561 34.47 66.0961 34.85C65.5561 35.23 64.7061 35.42 63.5461 35.42C61.9661 35.42 60.7161 35.07 59.7961 34.37C58.8961 33.65 58.4461 32.49 58.4461 30.89V27.08ZM60.6961 24.02V21.11H66.5761C66.6561 21.25 66.7361 21.45 66.8161 21.71C66.9161 21.97 66.9661 22.24 66.9661 22.52C66.9661 23.02 66.8461 23.4 66.6061 23.66C66.3661 23.9 66.0561 24.02 65.6761 24.02H60.6961ZM62.1361 27.89H58.4461V17.09C58.6061 17.03 58.8361 16.97 59.1361 16.91C59.4561 16.85 59.7861 16.82 60.1261 16.82C60.8261 16.82 61.3361 16.95 61.6561 17.21C61.9761 17.45 62.1361 17.89 62.1361 18.53V27.89ZM76.1456 27.08L79.8356 27.26V34.94C79.6756 35 79.4456 35.05 79.1456 35.09C78.8456 35.15 78.5156 35.18 78.1556 35.18C77.4756 35.18 76.9656 35.06 76.6256 34.82C76.3056 34.56 76.1456 34.11 76.1456 33.47V27.08ZM79.8356 29.15L76.1456 28.97V15.5C76.2856 15.46 76.5056 15.41 76.8056 15.35C77.1256 15.29 77.4556 15.26 77.7956 15.26C78.5156 15.26 79.0356 15.39 79.3556 15.65C79.6756 15.89 79.8356 16.33 79.8356 16.97V29.15ZM97.7658 27.89C97.7658 29.43 97.4658 30.77 96.8658 31.91C96.2658 33.03 95.4158 33.9 94.3158 34.52C93.2358 35.12 91.9558 35.42 90.4758 35.42C88.9958 35.42 87.7058 35.12 86.6058 34.52C85.5058 33.9 84.6458 33.03 84.0258 31.91C83.4258 30.79 83.1258 29.45 83.1258 27.89C83.1258 26.35 83.4358 25.02 84.0558 23.9C84.6758 22.78 85.5358 21.92 86.6358 21.32C87.7358 20.7 89.0158 20.39 90.4758 20.39C91.9358 20.39 93.2058 20.7 94.2858 21.32C95.3858 21.92 96.2358 22.79 96.8358 23.93C97.4558 25.05 97.7658 26.37 97.7658 27.89ZM90.4758 23.33C89.3758 23.33 88.5058 23.73 87.8658 24.53C87.2458 25.33 86.9358 26.45 86.9358 27.89C86.9358 29.37 87.2458 30.51 87.8658 31.31C88.4858 32.09 89.3558 32.48 90.4758 32.48C91.5758 32.48 92.4358 32.08 93.0558 31.28C93.6758 30.48 93.9858 29.35 93.9858 27.89C93.9858 26.47 93.6758 25.36 93.0558 24.56C92.4358 23.74 91.5758 23.33 90.4758 23.33ZM108.216 23.36C107.016 23.36 106.006 23.75 105.186 24.53C104.386 25.31 103.986 26.45 103.986 27.95C103.986 29.43 104.376 30.55 105.156 31.31C105.936 32.07 106.946 32.45 108.186 32.45C108.926 32.45 109.546 32.36 110.046 32.18C110.566 31.98 111.016 31.77 111.396 31.55C111.696 31.73 111.926 31.95 112.086 32.21C112.266 32.45 112.356 32.75 112.356 33.11C112.356 33.79 111.946 34.35 111.126 34.79C110.306 35.21 109.226 35.42 107.886 35.42C106.366 35.42 105.026 35.15 103.866 34.61C102.726 34.05 101.826 33.21 101.166 32.09C100.526 30.97 100.206 29.59 100.206 27.95C100.206 26.25 100.546 24.84 101.226 23.72C101.926 22.6 102.846 21.77 103.986 21.23C105.146 20.67 106.416 20.39 107.796 20.39C109.116 20.39 110.176 20.62 110.976 21.08C111.776 21.54 112.176 22.11 112.176 22.79C112.176 23.09 112.096 23.37 111.936 23.63C111.776 23.89 111.586 24.1 111.366 24.26C110.966 24.02 110.516 23.81 110.016 23.63C109.516 23.45 108.916 23.36 108.216 23.36ZM121.066 32.63C121.666 32.63 122.206 32.57 122.686 32.45C123.166 32.33 123.516 32.2 123.736 32.06V28.64L120.766 28.94C119.946 29 119.316 29.18 118.876 29.48C118.456 29.76 118.246 30.18 118.246 30.74C118.246 31.32 118.476 31.78 118.936 32.12C119.396 32.46 120.106 32.63 121.066 32.63ZM120.916 20.39C122.876 20.39 124.436 20.81 125.596 21.65C126.756 22.47 127.336 23.77 127.336 25.55V32.45C127.336 32.93 127.216 33.31 126.976 33.59C126.756 33.87 126.466 34.12 126.106 34.34C125.546 34.66 124.836 34.92 123.976 35.12C123.116 35.34 122.146 35.45 121.066 35.45C119.066 35.45 117.496 35.07 116.356 34.31C115.216 33.53 114.646 32.38 114.646 30.86C114.646 29.52 115.066 28.5 115.906 27.8C116.766 27.08 118.006 26.64 119.626 26.48L123.706 26.06V25.52C123.706 24.72 123.426 24.14 122.866 23.78C122.326 23.42 121.556 23.24 120.556 23.24C119.776 23.24 119.016 23.34 118.276 23.54C117.536 23.74 116.876 23.98 116.296 24.26C116.096 24.1 115.916 23.88 115.756 23.6C115.596 23.32 115.516 23.03 115.516 22.73C115.516 22.01 115.916 21.48 116.716 21.14C117.276 20.88 117.926 20.69 118.666 20.57C119.426 20.45 120.176 20.39 120.916 20.39ZM131.161 27.08H134.851V30.62C134.851 31.28 135.041 31.75 135.421 32.03C135.821 32.31 136.381 32.45 137.101 32.45C137.421 32.45 137.761 32.41 138.121 32.33C138.501 32.25 138.821 32.15 139.081 32.03C139.221 32.19 139.351 32.38 139.471 32.6C139.591 32.82 139.651 33.09 139.651 33.41C139.651 33.99 139.371 34.47 138.811 34.85C138.271 35.23 137.421 35.42 136.261 35.42C134.681 35.42 133.431 35.07 132.511 34.37C131.611 33.65 131.161 32.49 131.161 30.89V27.08ZM133.411 24.02V21.11H139.291C139.371 21.25 139.451 21.45 139.531 21.71C139.631 21.97 139.681 22.24 139.681 22.52C139.681 23.02 139.561 23.4 139.321 23.66C139.081 23.9 138.771 24.02 138.391 24.02H133.411ZM134.851 27.89H131.161V17.09C131.321 17.03 131.551 16.97 131.851 16.91C132.171 16.85 132.501 16.82 132.841 16.82C133.541 16.82 134.051 16.95 134.371 17.21C134.691 17.45 134.851 17.89 134.851 18.53V27.89ZM143.972 29.78L143.822 27.2L151.862 26C151.802 25.24 151.512 24.58 150.992 24.02C150.472 23.46 149.712 23.18 148.712 23.18C147.692 23.18 146.842 23.54 146.162 24.26C145.482 24.96 145.132 25.97 145.112 27.29L145.202 28.85C145.382 30.13 145.872 31.07 146.672 31.67C147.492 32.27 148.522 32.57 149.762 32.57C150.602 32.57 151.382 32.45 152.102 32.21C152.822 31.95 153.392 31.67 153.812 31.37C154.092 31.55 154.312 31.78 154.472 32.06C154.652 32.32 154.742 32.61 154.742 32.93C154.742 33.45 154.512 33.9 154.052 34.28C153.592 34.64 152.972 34.92 152.192 35.12C151.412 35.32 150.522 35.42 149.522 35.42C147.982 35.42 146.612 35.14 145.412 34.58C144.232 34 143.302 33.14 142.622 32C141.962 30.86 141.632 29.44 141.632 27.74C141.632 26.52 141.822 25.45 142.202 24.53C142.582 23.61 143.092 22.85 143.732 22.25C144.392 21.63 145.152 21.17 146.012 20.87C146.872 20.55 147.772 20.39 148.712 20.39C150.032 20.39 151.182 20.66 152.162 21.2C153.162 21.72 153.942 22.45 154.502 23.39C155.082 24.33 155.372 25.41 155.372 26.63C155.372 27.19 155.222 27.61 154.922 27.89C154.642 28.15 154.242 28.31 153.722 28.37L143.972 29.78Z" fill="#262626"/>
</svg>
