<svg width="91" height="30" viewBox="0 0 91 30" fill="none" xmlns="http://www.w3.org/2000/svg">
<path fill-rule="evenodd" clip-rule="evenodd" d="M7.6689 8.39646C7.31022 8.63995 6.9687 8.91887 6.64935 9.2332C3.79464 12.0431 3.77986 16.6237 6.62734 19.4467L14.0738 26.8292L14.6486 26.1761C15.6262 25.065 15.5913 23.4092 14.5837 22.3397L10.5286 18.3344L10.537 18.3262L9.1473 16.9484C7.69806 15.5116 7.70283 13.175 9.16024 11.7405C10.6074 10.316 12.9455 10.3208 14.3831 11.7488C15.8229 13.1791 15.8229 15.4949 14.3831 16.9251L12.2451 19.0488L14.7698 21.5425L16.9055 19.421C18.5901 17.7476 19.0714 15.425 18.7492 13.2524C18.7891 13.2174 18.7239 13.3047 18.7492 13.2524C18.4587 10.6697 19.8107 9.86625 21.1928 8.73429C21.5 8.5 20.8284 8.00148 20.5 8C18.4748 7.81729 17.9534 8.08349 15.9955 8.48558C15.3364 8.01652 14.6158 7.67031 13.8659 7.44687C13.1666 6.28361 13.5 4 12.613 3.31354V3.31495C12.613 3.31495 11.8153 2.8945 11 3.49023C9.02589 4.93271 9.03032 5.72416 7.98861 7.87966C7.82295 8.10806 7.72174 8.275 7.6689 8.39646Z" fill="#582DD4"/>
<path d="M80.2059 17.5502L80.1194 16.0635L84.7525 15.372C84.7179 14.934 84.5508 14.5537 84.2512 14.231C83.9515 13.9083 83.5136 13.7469 82.9373 13.7469C82.3495 13.7469 81.8597 13.9544 81.4679 14.3693C81.076 14.7726 80.8743 15.3547 80.8628 16.1153L80.9147 17.0143C81.0184 17.7519 81.3007 18.2936 81.7618 18.6393C82.2343 18.9851 82.8278 19.158 83.5424 19.158C84.0264 19.158 84.4759 19.0888 84.8908 18.9505C85.3057 18.8007 85.6342 18.6393 85.8762 18.4664C86.0376 18.5702 86.1643 18.7027 86.2565 18.8641C86.3603 19.0139 86.4121 19.181 86.4121 19.3654C86.4121 19.6651 86.2796 19.9244 86.0145 20.1434C85.7494 20.3508 85.3922 20.5122 84.9427 20.6274C84.4932 20.7427 83.9803 20.8003 83.4041 20.8003C82.5166 20.8003 81.7272 20.6389 81.0357 20.3162C80.3557 19.982 79.8198 19.4864 79.4279 18.8295C79.0476 18.1726 78.8574 17.3543 78.8574 16.3746C78.8574 15.6716 78.9669 15.055 79.1859 14.5249C79.4049 13.9947 79.6988 13.5567 80.0676 13.211C80.4479 12.8537 80.8858 12.5886 81.3814 12.4158C81.877 12.2314 82.3956 12.1392 82.9373 12.1392C83.698 12.1392 84.3607 12.2947 84.9254 12.6059C85.5017 12.9056 85.9511 13.3262 86.2738 13.8679C86.6081 14.4096 86.7752 15.032 86.7752 15.735C86.7752 16.0577 86.6887 16.2997 86.5159 16.4611C86.3545 16.6109 86.124 16.7031 85.8244 16.7377L80.2059 17.5502Z" fill="#262626"/>
<path d="M72.8237 15.9944H74.9501V18.0344C74.9501 18.4147 75.0596 18.6855 75.2786 18.8469C75.5091 19.0082 75.8318 19.0889 76.2467 19.0889C76.4311 19.0889 76.627 19.0659 76.8345 19.0198C77.0535 18.9737 77.2379 18.916 77.3877 18.8469C77.4684 18.9391 77.5433 19.0486 77.6124 19.1753C77.6816 19.3021 77.7161 19.4577 77.7161 19.6421C77.7161 19.9763 77.5548 20.2529 77.2321 20.4719C76.9209 20.6909 76.4311 20.8004 75.7626 20.8004C74.8522 20.8004 74.1318 20.5987 73.6017 20.1953C73.083 19.7804 72.8237 19.112 72.8237 18.1899V15.9944ZM74.1203 14.2311V12.5542H77.5087C77.5548 12.6348 77.6009 12.7501 77.647 12.8999C77.7046 13.0497 77.7334 13.2053 77.7334 13.3667C77.7334 13.6548 77.6643 13.8738 77.526 14.0236C77.3877 14.1619 77.209 14.2311 76.9901 14.2311H74.1203ZM74.9501 16.4612H72.8237V10.2376C72.9159 10.203 73.0485 10.1685 73.2213 10.1339C73.4058 10.0993 73.5959 10.082 73.7918 10.082C74.1952 10.082 74.4891 10.1569 74.6735 10.3068C74.8579 10.4451 74.9501 10.6986 74.9501 11.0674V16.4612Z" fill="#262626"/>
<path d="M67.0064 19.1925C67.3522 19.1925 67.6634 19.158 67.94 19.0888C68.2166 19.0197 68.4183 18.9447 68.545 18.8641V16.8933L66.8336 17.0661C66.361 17.1007 65.998 17.2044 65.7444 17.3773C65.5024 17.5387 65.3814 17.7807 65.3814 18.1034C65.3814 18.4376 65.5139 18.7027 65.779 18.8986C66.0441 19.0946 66.4532 19.1925 67.0064 19.1925ZM66.92 12.1392C68.0495 12.1392 68.9484 12.3812 69.6169 12.8652C70.2853 13.3378 70.6196 14.0869 70.6196 15.1126V19.0888C70.6196 19.3654 70.5504 19.5844 70.4121 19.7457C70.2853 19.9071 70.1182 20.0512 69.9108 20.1779C69.5881 20.3623 69.1789 20.5122 68.6834 20.6274C68.1878 20.7542 67.6288 20.8176 67.0064 20.8176C65.8539 20.8176 64.9492 20.5986 64.2923 20.1606C63.6354 19.7112 63.3069 19.0485 63.3069 18.1726C63.3069 17.4004 63.5489 16.8126 64.033 16.4092C64.5285 15.9943 65.2431 15.7408 66.1766 15.6486L68.5278 15.4065V15.0954C68.5278 14.6343 68.3664 14.3001 68.0437 14.0927C67.7325 13.8852 67.2888 13.7815 66.7126 13.7815C66.2631 13.7815 65.8251 13.8391 65.3987 13.9544C64.9723 14.0696 64.5919 14.2079 64.2577 14.3693C64.1425 14.2771 64.0387 14.1503 63.9465 13.9889C63.8543 13.8276 63.8082 13.6605 63.8082 13.4876C63.8082 13.0727 64.0387 12.7673 64.4997 12.5714C64.8224 12.4215 65.197 12.312 65.6234 12.2429C66.0614 12.1737 66.4936 12.1392 66.92 12.1392Z" fill="#262626"/>
<path d="M59.6014 13.8506C58.9099 13.8506 58.3279 14.0754 57.8553 14.5249C57.3943 14.9743 57.1638 15.6313 57.1638 16.4957C57.1638 17.3485 57.3886 17.9939 57.8381 18.4319C58.2875 18.8698 58.8696 19.0888 59.5841 19.0888C60.0105 19.0888 60.3678 19.0369 60.656 18.9332C60.9556 18.818 61.2149 18.6969 61.4339 18.5702C61.6068 18.6739 61.7393 18.8007 61.8315 18.9505C61.9352 19.0888 61.9871 19.2617 61.9871 19.4691C61.9871 19.861 61.7508 20.1837 61.2783 20.4372C60.8058 20.6793 60.1834 20.8003 59.4112 20.8003C58.5353 20.8003 57.7631 20.6447 57.0947 20.3335C56.4378 20.0108 55.9191 19.5268 55.5388 18.8814C55.17 18.2359 54.9856 17.4407 54.9856 16.4957C54.9856 15.516 55.1815 14.7035 55.5734 14.0581C55.9768 13.4127 56.5069 12.9344 57.1638 12.6232C57.8323 12.3005 58.5641 12.1392 59.3594 12.1392C60.12 12.1392 60.7309 12.2717 61.1919 12.5368C61.6529 12.8019 61.8834 13.1303 61.8834 13.5222C61.8834 13.6951 61.8373 13.8564 61.7451 14.0062C61.6529 14.1561 61.5434 14.2771 61.4166 14.3693C61.1861 14.231 60.9268 14.11 60.6387 14.0062C60.3505 13.9025 60.0048 13.8506 59.6014 13.8506Z" fill="#262626"/>
<path d="M53.5794 16.4611C53.5794 17.3485 53.4066 18.1207 53.0608 18.7776C52.7151 19.423 52.2252 19.9244 51.5914 20.2817C50.969 20.6274 50.2314 20.8003 49.3785 20.8003C48.5257 20.8003 47.7823 20.6274 47.1484 20.2817C46.5146 19.9244 46.019 19.423 45.6617 18.7776C45.3159 18.1322 45.1431 17.36 45.1431 16.4611C45.1431 15.5736 45.3217 14.8072 45.679 14.1618C46.0363 13.5164 46.5318 13.0208 47.1657 12.6751C47.7996 12.3178 48.5372 12.1392 49.3785 12.1392C50.2199 12.1392 50.9517 12.3178 51.5741 12.6751C52.208 13.0208 52.6978 13.5222 53.0435 14.1791C53.4008 14.8245 53.5794 15.5852 53.5794 16.4611ZM49.3785 13.8334C48.7447 13.8334 48.2433 14.0639 47.8745 14.5249C47.5172 14.9859 47.3386 15.6313 47.3386 16.4611C47.3386 17.3139 47.5172 17.9709 47.8745 18.4319C48.2318 18.8814 48.7331 19.1061 49.3785 19.1061C50.0124 19.1061 50.508 18.8756 50.8653 18.4146C51.2226 17.9536 51.4012 17.3024 51.4012 16.4611C51.4012 15.6428 51.2226 15.0032 50.8653 14.5421C50.508 14.0696 50.0124 13.8334 49.3785 13.8334Z" fill="#262626"/>
<path d="M41.1208 15.9942L43.2472 16.0979V20.5236C43.155 20.5581 43.0225 20.587 42.8496 20.61C42.6767 20.6446 42.4866 20.6619 42.2791 20.6619C41.8873 20.6619 41.5934 20.5927 41.3975 20.4544C41.2131 20.3046 41.1208 20.0453 41.1208 19.6765V15.9942ZM43.2472 17.1871L41.1208 17.0833V9.32116C41.2015 9.29811 41.3283 9.2693 41.5012 9.23472C41.6856 9.20015 41.8757 9.18286 42.0717 9.18286C42.4866 9.18286 42.7862 9.25777 42.9706 9.4076C43.155 9.5459 43.2472 9.79946 43.2472 10.1683V17.1871Z" fill="#262626"/>
<path d="M30.9211 15.9944H33.0475V18.0344C33.0475 18.4147 33.157 18.6855 33.376 18.8469C33.6065 19.0082 33.9292 19.0889 34.3441 19.0889C34.5285 19.0889 34.7244 19.0659 34.9319 19.0198C35.1509 18.9737 35.3353 18.916 35.4851 18.8469C35.5658 18.9391 35.6407 19.0486 35.7098 19.1753C35.779 19.3021 35.8136 19.4577 35.8136 19.6421C35.8136 19.9763 35.6522 20.2529 35.3295 20.4719C35.0183 20.6909 34.5285 20.8004 33.86 20.8004C32.9496 20.8004 32.2292 20.5987 31.6991 20.1953C31.1805 19.7804 30.9211 19.112 30.9211 18.1899V15.9944ZM32.2177 14.2311V12.5542H35.6061C35.6522 12.6348 35.6983 12.7501 35.7444 12.8999C35.802 13.0497 35.8308 13.2053 35.8308 13.3667C35.8308 13.6548 35.7617 13.8738 35.6234 14.0236C35.4851 14.1619 35.3064 14.2311 35.0875 14.2311H32.2177ZM33.0475 16.4612H30.9211V10.2376C31.0133 10.203 31.1459 10.1685 31.3188 10.1339C31.5032 10.0993 31.6933 10.082 31.8893 10.082C32.2926 10.082 32.5865 10.1569 32.7709 10.3068C32.9553 10.4451 33.0475 10.6986 33.0475 11.0674V16.4612Z" fill="#262626"/>
<path d="M22.6197 17.5502L22.5332 16.0635L27.1663 15.372C27.1318 14.934 26.9646 14.5537 26.665 14.231C26.3653 13.9083 25.9274 13.7469 25.3511 13.7469C24.7634 13.7469 24.2735 13.9544 23.8817 14.3693C23.4898 14.7726 23.2881 15.3547 23.2766 16.1153L23.3285 17.0143C23.4322 17.7519 23.7146 18.2936 24.1756 18.6393C24.6481 18.9851 25.2416 19.158 25.9562 19.158C26.4403 19.158 26.8897 19.0888 27.3046 18.9505C27.7195 18.8007 28.048 18.6393 28.29 18.4664C28.4514 18.5702 28.5782 18.7027 28.6704 18.8641C28.7741 19.0139 28.826 19.181 28.826 19.3654C28.826 19.6651 28.6934 19.9244 28.4283 20.1434C28.1633 20.3508 27.806 20.5122 27.3565 20.6274C26.907 20.7427 26.3942 20.8003 25.8179 20.8003C24.9305 20.8003 24.141 20.6389 23.4495 20.3162C22.7695 19.982 22.2336 19.4864 21.8417 18.8295C21.4614 18.1726 21.2712 17.3543 21.2712 16.3746C21.2712 15.6716 21.3807 15.055 21.5997 14.5249C21.8187 13.9947 22.1126 13.5567 22.4814 13.211C22.8617 12.8537 23.2997 12.5886 23.7952 12.4158C24.2908 12.2314 24.8095 12.1392 25.3511 12.1392C26.1118 12.1392 26.7745 12.2947 27.3392 12.6059C27.9155 12.9056 28.3649 13.3262 28.6877 13.8679C29.0219 14.4096 29.189 15.032 29.189 15.735C29.189 16.0577 29.1026 16.2997 28.9297 16.4611C28.7683 16.6109 28.5378 16.7031 28.2382 16.7377L22.6197 17.5502Z" fill="#262626"/>
</svg>
