<svg width="24" height="24" viewBox="0 0 24 24" fill="none" xmlns="http://www.w3.org/2000/svg">
<path d="M13.2161 9.5C12.5066 9.5 9.46066 9.56961 7.5 12.5217V9.5C7.5 7.63883 5.98617 6.125 4.125 6.125C3.50379 6.125 3 6.62879 3 7.25C3 7.87121 3.50379 8.375 4.125 8.375C4.74516 8.375 5.25 8.87984 5.25 9.5V18.5C5.25 19.741 6.25898 20.75 7.5 20.75H13.6875C13.9983 20.75 14.25 20.4983 14.25 20.1875V19.625C14.25 19.0038 13.7462 18.5 13.125 18.5H12L16.5 15.125V20.1875C16.5 20.4983 16.7517 20.75 17.0625 20.75H18.1875C18.4983 20.75 18.75 20.4983 18.75 20.1875V12.9404C18.3882 13.0343 18.0156 13.1 17.625 13.1C15.452 13.1 13.6341 11.5514 13.2161 9.5ZM18.75 6.125H16.5L14.25 3.875V8.6C14.25 10.464 15.761 11.975 17.625 11.975C19.489 11.975 21 10.464 21 8.6V3.875L18.75 6.125ZM16.2188 8.9375C15.908 8.9375 15.6562 8.68578 15.6562 8.375C15.6562 8.06422 15.908 7.8125 16.2188 7.8125C16.5295 7.8125 16.7812 8.06422 16.7812 8.375C16.7812 8.68578 16.5295 8.9375 16.2188 8.9375ZM19.0312 8.9375C18.7205 8.9375 18.4688 8.68578 18.4688 8.375C18.4688 8.06422 18.7205 7.8125 19.0312 7.8125C19.342 7.8125 19.5938 8.06422 19.5938 8.375C19.5938 8.68578 19.342 8.9375 19.0312 8.9375Z" fill="#CCCCCC"/>
</svg>
