<svg width="24" height="23" viewBox="0 0 24 23" fill="none" xmlns="http://www.w3.org/2000/svg">
<path d="M20.4375 5.24995H18.1875L17.9358 4.74686C17.8424 4.56 17.6987 4.40284 17.521 4.293C17.3433 4.18315 17.1385 4.12496 16.9296 4.12495H15.0445L14.0855 3.16589C13.7307 2.81151 13.125 3.06253 13.125 3.5635V8.83132L17.625 10.4383V9.18745H18.75C19.9928 9.18745 21 8.18022 21 6.93745V5.81245C21 5.50167 20.7483 5.24995 20.4375 5.24995ZM16.5 6.93745C16.1892 6.93745 15.9375 6.68573 15.9375 6.37495C15.9375 6.06417 16.1892 5.81245 16.5 5.81245C16.8108 5.81245 17.0625 6.06417 17.0625 6.37495C17.0625 6.68573 16.8108 6.93745 16.5 6.93745ZM6.375 9.74995C5.75484 9.74995 5.25 9.24511 5.25 8.62495C5.25 8.00374 4.74621 7.49995 4.125 7.49995C3.50379 7.49995 3 8.00374 3 8.62495C3 10.0896 3.94324 11.3267 5.25 11.7925V19.3124C5.25 19.6232 5.50172 19.8749 5.8125 19.8749H8.0625C8.37328 19.8749 8.625 19.6232 8.625 19.3124V15.3749H14.25V19.3124C14.25 19.6232 14.5017 19.8749 14.8125 19.8749H17.0625C17.3733 19.8749 17.625 19.6232 17.625 19.3124V11.6326L12.3533 9.74995H6.375Z" fill="#CCCCCC"/>
</svg>
