<svg width="25" height="25" viewBox="0 0 25 25" fill="none" xmlns="http://www.w3.org/2000/svg">
<path d="M12.5269 0.391357C5.68945 0.391357 0.390625 5.38843 0.390625 12.1379C0.390625 15.6682 1.84131 18.719 4.20264 20.8264C4.61035 21.1931 4.52637 21.4055 4.5957 23.6697C4.60116 23.8283 4.64534 23.9831 4.72439 24.1207C4.80344 24.2583 4.91495 24.3745 5.0492 24.4591C5.18346 24.5437 5.33637 24.5942 5.49461 24.6061C5.65285 24.6181 5.8116 24.5911 5.95703 24.5276C8.54053 23.3899 8.57373 23.3 9.01172 23.4192C16.4966 25.4792 24.6094 20.6892 24.6094 12.1379C24.6094 5.38843 19.3647 0.391357 12.5269 0.391357ZM19.814 9.43091L16.2495 15.074C16.1149 15.2862 15.9379 15.4683 15.7297 15.6089C15.5214 15.7495 15.2863 15.8456 15.0392 15.8911C14.7921 15.9366 14.5382 15.9306 14.2935 15.8734C14.0488 15.8162 13.8186 15.7091 13.6172 15.5588L10.7813 13.4363C10.6545 13.3412 10.5003 13.2898 10.3418 13.2898C10.1833 13.2898 10.0291 13.3412 9.90234 13.4363L6.07568 16.3386C5.56494 16.7258 4.896 16.114 5.24023 15.5735L8.80469 9.93042C8.93924 9.71817 9.1162 9.536 9.32446 9.39536C9.53273 9.25471 9.7678 9.15861 10.015 9.11309C10.2621 9.06756 10.516 9.07359 10.7607 9.13081C11.0054 9.18802 11.2357 9.29517 11.437 9.44556L14.272 11.5676C14.3988 11.6627 14.553 11.7141 14.7114 11.7141C14.8699 11.7141 15.0241 11.6627 15.1509 11.5676L18.9795 8.66821C19.4893 8.27856 20.1582 8.88989 19.814 9.43091Z" fill="black"/>
</svg>
